# xmcd CD database file
#
# Track frame offsets:
#	150
#	2534
#	25986
#	66238
#	105743
#	145262
#	180186
#	221668
#	281799
#	320493
#	334158
#
# Disc length: 4499 seconds
#
# Revision: 0
# Processed by: cddbd v1.5.2PL0 Copyright (c) Steve Scherf et al.
# Submitted via: CDex 1.51
#
DISCID=9e11910b
DTITLE=Dolores Ashcroft Nowicki - Your Unseen Power - 03 - The Way Ahead
DYEAR=2006
DGENRE=New Age
TTITLE0=Introduction
TTITLE1=The power of self-discipline
TTITLE2=Solutions for vizualisation
TTITLE3=Clairaudience and Clairvoyance
TTITLE4=The powers of smell, taste and touch
TTITLE5=The sixth sense of awareness
TTITLE6=Creating a meditation room
TTITLE7=The astral and lower mental levels
TTITLE8=Your magical personality
TTITLE9=The energies of good and evil
TTITLE10=A ritual and a blessing
EXTD=YEAR: 2006
EXTT0=
EXTT1=
EXTT2=
EXTT3=
EXTT4=
EXTT5=
EXTT6=
EXTT7=
EXTT8=
EXTT9=
EXTT10=
PLAYORDER=
